<?xml version="1.0" encoding="UTF-8"?><svg id="_レイヤー_1" xmlns="http://www.w3.org/2000/svg" width="400" height="80" viewBox="0 0 400 80"><defs><style>.cls-1{fill:#c70906;}</style></defs><path class="cls-1" d="M0,71.11l4.8-5.76c3,2.77,6.95,4.63,10.62,4.63,4.35,0,6.67-1.86,6.67-4.8,0-3.11-2.54-4.07-6.27-5.65l-5.59-2.37c-4.24-1.75-8.48-5.14-8.48-11.24,0-6.84,5.99-12.09,14.47-12.09,4.86,0,9.72,1.92,13.11,5.37l-4.24,5.26c-2.66-2.2-5.42-3.45-8.87-3.45-3.67,0-5.99,1.64-5.99,4.41,0,2.99,2.94,4.07,6.5,5.48l5.48,2.32c5.09,2.09,8.42,5.31,8.42,11.36,0,6.84-5.71,12.66-15.37,12.66-5.59,0-11.19-2.2-15.26-6.1Z"/><path class="cls-1" d="M47.47,34.55h9.83l13.45,41.87h-8.76l-2.94-10.74h-13.56l-2.94,10.74h-8.48l13.39-41.87ZM47.3,59.18h9.95l-1.24-4.58c-1.3-4.35-2.43-9.15-3.62-13.67h-.28c-1.07,4.58-2.32,9.32-3.56,13.67l-1.24,4.58Z"/><path class="cls-1" d="M77.08,34.55h8.36v34.87h17.01v7.01h-25.37v-41.87Z"/><path class="cls-1" d="M111.15,34.55h25.66v7.01h-17.29v9.66h14.69v7.01h-14.69v11.19h17.91v7.01h-26.28v-41.87Z"/><path class="cls-1" d="M20.74,16.57c-1.2,2.62-2.97,4.66-5.14,6.23,2.57.91,5.57,1.53,8.86,1.82-.67.72-1.52,2.11-1.95,2.97-3.88-.48-7.33-1.39-10.22-2.81-3.08,1.47-6.64,2.35-10.41,2.86-.32-.75-1.2-2.17-1.87-2.81,3.35-.35,6.45-.96,9.1-1.95-1.63-1.15-3.05-2.57-4.23-4.2l.88-.38h-1.26v-2.92h13.51l.59-.13,2.14,1.31ZM3.61,16.38H.64v-5.81h3.83c-.27-.83-.78-1.9-1.26-2.76l2.38-.67c-1.34.08-2.7.13-3.99.16-.05-.8-.43-2.01-.72-2.7,7.04-.24,15.09-.88,19.96-1.82l2.14,2.57c-2.89.53-6.34.96-9.9,1.28.54,1.07,1.04,2.49,1.2,3.45l-1.98.48h4.66c.64-1.23,1.34-2.81,1.74-4.01l3.4.8c-.62,1.12-1.31,2.22-1.93,3.21h3.8v5.81h-3.1v-3.05H3.61v3.05ZM12.9,6.64c-2.25.21-4.58.38-6.85.48.62.99,1.23,2.19,1.5,3.05l-1.39.4h5.11c-.16-.94-.56-2.27-1.02-3.32l2.65-.62ZM8.24,18.31c1.1,1.2,2.46,2.22,4.07,3.1,1.42-.86,2.68-1.87,3.64-3.1h-7.71Z"/><path class="cls-1" d="M27.58,25.53c.91-1.36,1.23-3.61,1.34-5.89l1.77.35c-.13,2.44-.4,4.92-1.5,6.42l-1.61-.88ZM48.16,20.45c1.07,2.17,2.76,3.96,5,4.92-.64.59-1.55,1.71-2.01,2.52-2.22-1.15-3.85-3.16-5-5.62-.96,2.14-2.76,4.15-5.94,5.7-.32-.54-.99-1.34-1.55-1.87-.11.35-.21.59-.35.75-.45.62-.94.86-1.61.94-.53.11-1.39.13-2.35.08-.03-.75-.27-1.79-.64-2.46.7.08,1.28.11,1.63.11.32,0,.51-.08.72-.35.19-.27.32-.94.45-2.33l-.86.32c-.16-.94-.7-2.38-1.2-3.45l1.26-.43c.35.67.67,1.45.91,2.17.05-.8.11-1.79.16-2.94h-7.65V3.91h9.85v2.57h-2.86v1.47h2.33v1.42c2.41-1.44,4.74-4.2,5.83-6.42h2.73c1.61,2.46,3.93,4.9,6.29,6.02-.56.75-1.18,1.9-1.58,2.73-.59-.35-1.18-.75-1.74-1.23v1.47h-2.68v1.44h4.79v7.06h-3.93ZM32.29,20.07c.24,1.55.35,3.61.27,4.9l-1.45.19c.08-1.34,0-3.37-.19-4.95l1.36-.13ZM31.75,6.48v1.47h1.82v-1.47h-1.82ZM31.75,10.36v1.61h1.82v-1.61h-1.82ZM31.75,16.03h1.82v-1.66h-1.82v1.66ZM34.08,19.81c.43,1.39.8,3.16.88,4.31l-1.39.29c-.05-1.15-.4-2.94-.83-4.33l1.34-.27ZM39.49,16.03s0,.7-.03,1.04c-.19,4.41-.35,6.98-.64,8.4,2.76-1.39,4.2-3.16,4.92-5.03h-3.8v-7.06h4.55v-1.44h-2.73v-1.44c-.67.56-1.34,1.1-2.06,1.52-.29-.7-.8-1.61-1.26-2.27v.62h-2.33v1.61h2.33v2.41h-2.33v1.66h3.37ZM44.33,18.15c.13-.8.16-1.61.16-2.38v-.08h-1.95v2.46h1.79ZM48.88,9.5c-1.26-1.18-2.38-2.57-3.13-3.8-.7,1.2-1.74,2.57-2.94,3.8h6.07ZM47.3,15.69v.11c0,.78-.03,1.55-.11,2.36h2.19v-2.46h-2.09Z"/><path class="cls-1" d="M80.55,24.03v3.13h-24.05v-3.13h10.33v-5.38h-7.25v-3.08h7.25v-4.71h-5.54c-.78,1.47-1.61,2.84-2.49,3.88-.64-.51-2.06-1.47-2.86-1.9,2.09-2.25,3.83-5.94,4.74-9.58l3.29.72c-.37,1.28-.8,2.54-1.26,3.77h4.12V2.95h3.34v4.82h9.02v3.1h-9.02v4.71h8v3.08h-8v5.38h10.38Z"/><path class="cls-1" d="M89.38,12.77c0,4.31-.4,10.92-2.81,15.09-.59-.54-2.01-1.44-2.76-1.79,2.19-3.83,2.38-9.45,2.38-13.3v-6.74h9.53v-3.08h3.32v3.08h9.66v3.02h-19.32v3.72ZM88.9,24.33c1.12-2.03,1.69-5.14,1.95-8.11l2.86.62c-.29,3.08-.78,6.61-1.98,8.75l-2.84-1.26ZM100.83,24.57c.8,0,.96-.62,1.07-4.31.67.56,1.98,1.07,2.81,1.28-.29,4.58-1.1,5.86-3.59,5.86h-2.97c-2.84,0-3.51-.94-3.51-3.91v-9.34h3.16v9.31c0,.96.11,1.1.86,1.1h2.17ZM101.12,15.39c-1.28-1.26-4.09-3.05-6.29-4.17l2.11-2.09c2.14,1.02,5.03,2.62,6.48,3.88l-2.3,2.38ZM105.81,15.53c1.58,2.78,3.13,6.31,3.56,8.75l-3.13,1.28c-.35-2.38-1.74-6.1-3.26-8.94l2.84-1.1Z"/><path class="cls-1" d="M120.7,17.88c-.88.27-1.77.53-2.65.78v5.89c0,1.47-.27,2.27-1.07,2.78-.8.51-1.95.62-3.69.59-.08-.78-.43-2.09-.8-2.94.96.05,1.87.05,2.19.03.32,0,.45-.11.45-.45v-5.06l-2.68.8-.48-3.13c.91-.19,1.98-.45,3.16-.75v-5.49h-2.81v-2.94h2.81V2.95h2.92v5.03h2.41v2.94h-2.41v4.71l2.25-.59.4,2.84ZM135.37,18.2c-.67,2.38-1.69,4.23-3.08,5.7,1.52.67,3.24,1.15,5.14,1.45-.67.62-1.47,1.79-1.87,2.6-2.11-.45-4.01-1.15-5.65-2.06-1.47.91-3.21,1.61-5.06,2.09-.32-.67-1.18-1.85-1.71-2.36,1.61-.32,3.08-.8,4.36-1.47-.78-.62-1.45-1.36-2.03-2.17-1.04,2.25-2.57,4.33-4.95,5.89-.43-.75-1.34-1.77-2.06-2.3,3.53-2.17,4.9-5.59,5.51-9.02h-3.21v-2.57h3.56c.03-.43.05-.86.11-1.26h-3.16v-2.49h1.66c-.21-.83-.62-2.01-.96-2.89l2.41-.67c.4.99.96,2.27,1.2,3.08l-1.5.48h3.08c-.08-.88-.32-2.27-.59-3.37l2.49-.43c.29,1.04.62,2.41.72,3.24l-2.49.56h3.34c.75-1.26,1.61-3,2.09-4.31-3.56.45-7.68.7-11.27.75-.05-.7-.37-1.71-.67-2.36,4.68-.16,10.17-.56,13.46-1.28l1.79,2.38c-1.02.19-2.11.35-3.32.51l2.94.86c-.72,1.18-1.5,2.41-2.19,3.45h2.54v2.49h-8.56c-.03.43-.05.83-.11,1.26h9.45v2.57h-9.77c-.08.35-.13.7-.21,1.04h6.34l.51-.08,1.71.7ZM127.18,19.89c.67,1.02,1.55,1.9,2.68,2.68.8-.75,1.5-1.63,1.98-2.68h-4.66Z"/><path class="cls-1" d="M158.58,78.59V20.88c-3.58,1.66-10.1,3.02-13.95,3.35v-12.53c7.32-1.35,14.72-5.51,19.14-10.36h11.86v77.26h-17.05Z"/><path class="cls-1" d="M247.37,39.52c0,21.22-6.74,40.48-29.66,40.48s-29.65-18.62-29.65-40S195.83,0,218.06,0s29.31,17.6,29.31,39.52ZM205.37,39.81c0,14.19,1.62,26.82,12.54,26.82s12.06-11.81,12.06-27-1.81-26.24-11.9-26.24-12.7,9.72-12.7,26.43Z"/><path class="cls-1" d="M274.24,49.31c0,7.06-3.31,10.95-9.5,11.01-5.89,0-9.43-3.28-9.43-10.89,0-7.19,3.73-10.85,9.5-10.85s9.43,3.18,9.43,10.72ZM261.37,49.38c0,4.51,1.05,6.51,3.44,6.51s3.44-2.1,3.44-6.56-.95-6.36-3.44-6.36c-2.27,0-3.44,1.78-3.44,6.42ZM262.95,76.64l24.13-37.6h5.23l-24.19,37.6h-5.17ZM300.13,66.2c0,7.07-3.31,10.95-9.5,11.01-5.89,0-9.43-3.26-9.43-10.89,0-7.17,3.73-10.84,9.5-10.84s9.43,3.2,9.43,10.72ZM287.26,66.27c0,4.5,1.05,6.51,3.44,6.51s3.44-2.1,3.44-6.56-.95-6.36-3.44-6.36c-2.27,0-3.44,1.82-3.44,6.41Z"/><path class="cls-1" d="M306.63,57.66c0-12.17,6.82-19.25,16.72-19.25s16.72,7.12,16.72,19.25-6.82,19.55-16.72,19.55-16.72-7.43-16.72-19.55ZM332.44,57.66c0-8.03-3.54-12.83-9.09-12.83s-9.09,4.8-9.09,12.83,3.54,13.09,9.09,13.09,9.09-5.1,9.09-13.09Z"/><path class="cls-1" d="M347.4,39.07h23.04v6.27h-15.56v9.75h13.29v6.26h-13.29v15.16h-7.48v-37.44Z"/><path class="cls-1" d="M376.96,39.07h23.04v6.27h-15.56v9.75h13.29v6.26h-13.29v15.16h-7.48v-37.44Z"/><path class="cls-1" d="M271.1,25.33h10.04v3.62h-24v-3.62h9.64v-2.69h-7.4v-3.51h7.4v-2.61h-5.89v-2.3c-.98.65-1.96,1.23-3,1.79-.53-.95-1.68-2.47-2.58-3.31,4.82-2.33,9.28-6.56,11.3-9.93h4.26c3.06,4.4,7.43,7.85,11.94,9.59-1.04,1.07-1.94,2.41-2.69,3.67-.98-.53-1.96-1.12-2.94-1.77v2.24h-6.08v2.61h7.49v3.51h-7.49v2.69ZM275.33,12.97c-2.61-1.94-4.96-4.18-6.42-6.2-1.49,2.07-3.67,4.26-6.25,6.2h12.67Z"/><path class="cls-1" d="M295.12,10.86h-9.98v-3.17h9.98v3.17ZM294.37,28.56h-4.77v1.01h-3.31v-9.73h8.08v8.72ZM294.25,14.85h-7.85v-3.03h7.85v3.03ZM286.4,15.8h7.85v3.03h-7.85v-3.03ZM294.14,6.77h-7.6v-3.03h7.6v3.03ZM289.6,23.01v2.38h1.4v-2.38h-1.4ZM311.92,25.61h-1.35v.53c0,1.6-.31,2.41-1.37,2.92-1.06.48-2.5.5-4.4.5-.11-.93-.5-2.22-.9-3.08.93.06,2.19.06,2.52.06.36-.03.48-.11.48-.45v-.48h-7.29v3.98h-3.39v-3.98h-1.23v-3.14h1.23v-6.95h5.44v-.7h-6.62v-3.03h3.42v-.81h-2.22v-2.75h2.22v-.76h-2.72v-2.83h2.72v-1.74h3.62v1.74h2.55v-1.74h3.64v1.74h3v2.83h-3v.76h2.38v2.75h-2.38v.81h3.56v3.03h-6.87v.7h5.61v6.95h1.35v3.14ZM299.61,18.27v.84h2.05v-.84h-2.05ZM299.61,22.47h2.05v-.93h-2.05v.93ZM302.08,8.23h2.55v-.76h-2.55v.76ZM302.08,11.79h2.55v-.81h-2.55v.81ZM304.96,18.27v.84h1.94v-.84h-1.94ZM306.9,22.47v-.93h-1.94v.93h1.94Z"/><path class="cls-1" d="M332.44,25.47h8.64v3.48h-20.97v-3.48h8.41v-1.99h-6.67v-3.48h6.67v-2.92l-1.49,1.85c-.39-.56-1.04-1.29-1.74-2.02-.62.95-1.35,1.79-2.24,2.47-.53-.56-1.77-1.57-2.64-2.16-.25,4.12-.98,8.83-2.75,12.06-.73-.7-2.52-1.88-3.48-2.27,2.22-4.04,2.38-10.04,2.38-14.19v-7.57h10.12v-2.33h4.26v2.33h9.87v3.76h-20.27v3.84c0,1.18-.03,2.52-.11,3.95,2.05-1.46,2.89-3.79,3.11-6.73l3.7.25c-.11,1.21-.31,2.3-.59,3.31.67.56,1.32,1.18,1.85,1.74v-5.58h3.93v6.08c1.4-1.43,2.13-3.45,2.41-5.8l3.62.39c-.17,1.12-.39,2.16-.7,3.14,1.29,1.01,2.72,2.13,3.53,2.92l-2.35,2.83c-.62-.67-1.63-1.6-2.69-2.52-.62.95-1.37,1.77-2.24,2.44-.34-.36-.95-.95-1.57-1.46v2.19h7.21v3.48h-7.21v1.99Z"/><path class="cls-1" d="M356.04,11.9c-.5,2.89-1.23,5.5-2.19,7.85,1.15,1.57,2.16,3.08,2.78,4.4l-3.25,2.78c-.39-.93-.95-1.96-1.65-3.08-1.43,2.22-3.22,4.07-5.38,5.52-.5-.81-1.91-2.47-2.72-3.2,2.44-1.4,4.29-3.39,5.66-5.89-1.43-1.94-3-3.87-4.49-5.52l2.86-2.33c1.07,1.15,2.22,2.44,3.34,3.76.48-1.51.84-3.14,1.09-4.85l3.95.56ZM370.54,12.8h-2.8v11.83c0,2.19-.36,3.34-1.54,4.04-1.21.7-3,.87-5.33.87-.11-1.21-.7-3.17-1.26-4.4,1.46.08,2.94.08,3.45.08.48,0,.65-.14.65-.62v-11.8h-6.67v-1.96h-12.56v-3.76h4.65V2.96h3.9v4.12h4.96v1.82h5.72V2.93h4.04v5.97h2.8v3.9ZM359.63,14.62c1.29,1.79,2.64,4.15,3.08,5.83l-3.51,1.79c-.39-1.63-1.6-4.15-2.83-6.03l3.25-1.6Z"/><path class="cls-1" d="M399.55,18.38c-1.77,1.09-3.76,2.13-5.47,2.89,1.51,1.79,3.48,3.2,5.92,4.07-.87.79-2.05,2.35-2.61,3.42-5.24-2.27-8.08-6.59-9.84-12.5-.62.36-1.26.73-1.96,1.06,5.72,3.87,5.55,9.59,2.52,11.44-1.15.76-2.02.95-3.51.98-.7,0-1.49-.03-2.27-.06-.06-.9-.31-2.07-.79-3.06-1.85.84-3.79,1.54-5.61,2.05-.5-.84-1.54-2.19-2.27-2.92,4.07-.84,8.61-2.52,11.44-4.4l-.34-.42c-2.5,1.46-5.64,2.69-8.5,3.34-.48-.78-1.43-2.02-2.1-2.69,2.89-.48,6.08-1.37,8.38-2.5l-.48-.28c-1.96.7-4.04,1.29-5.97,1.74-.42-.7-1.37-2.16-1.99-2.83,2.38-.36,4.88-.93,7.09-1.65h-4.21v-4.12l-.59.36c-.59-.93-1.85-2.3-2.72-2.89,3.56-1.85,6.08-4.35,7.51-6.62l4.21.87c-.23.31-.45.65-.67.95h4.32l.62-.17,2.78,1.82c-.48.76-1.12,1.63-1.79,2.47h6.34v7.32h-.65l3.2,2.33ZM380.82,13.16h3.87v-1.54h-3.87v1.54ZM382.28,7.58c-.36.39-.76.78-1.15,1.15h4.85c.31-.36.59-.76.84-1.15h-4.54ZM386.32,24.07c-1.15.76-2.41,1.43-3.7,2.08.48.03.93.03,1.32.03.67,0,1.26-.06,1.68-.42.48-.31.73-.9.7-1.68ZM392.96,11.62h-4.26v1.54h4.26v-1.54ZM391.17,16.05c.34.93.7,1.79,1.15,2.61,1.4-.78,2.86-1.77,3.9-2.61h-5.05Z"/></svg>